<mxfile host="app.diagrams.net" agent="Mozilla/5.0 (Windows NT 10.0; Win64; x64) AppleWebKit/537.36 (KHTML, like Gecko) Chrome/134.0.0.0 Safari/537.36" version="26.1.1">
  <diagram name="Page-1" id="6cj-S6ZfE_OJEVZYGLJd">
    <mxGraphModel dx="3148" dy="916" grid="1" gridSize="10" guides="1" tooltips="1" connect="1" arrows="1" fold="1" page="1" pageScale="1" pageWidth="850" pageHeight="1100" math="0" shadow="0">
      <root>
        <mxCell id="0" />
        <mxCell id="1" parent="0" />
        <mxCell id="BptUhg1o3gFt8rA6bAoc-45" value="" style="rounded=1;whiteSpace=wrap;html=1;strokeColor=#0070F2;fillColor=#EBF8FF;arcSize=24;absoluteArcSize=1;imageWidth=64;imageHeight=64;strokeWidth=1.5;" vertex="1" parent="1">
          <mxGeometry x="10" y="119" width="790" height="630" as="geometry" />
        </mxCell>
        <mxCell id="BptUhg1o3gFt8rA6bAoc-46" value="BTP" style="image;image=img/lib/sap/SAP_Logo.svg;editableCssRules=.*;part=1;verticalLabelPosition=middle;labelBackgroundColor=none;verticalAlign=middle;imageAspect=0;labelPosition=right;align=left;fontSize=16;fontStyle=1;spacingLeft=0;fontColor=#002A86;spacing=0;" vertex="1" parent="BptUhg1o3gFt8rA6bAoc-45">
          <mxGeometry width="37" height="19" relative="1" as="geometry">
            <mxPoint x="20" y="20" as="offset" />
          </mxGeometry>
        </mxCell>
        <mxCell id="BptUhg1o3gFt8rA6bAoc-47" value="Subaccount&lt;div&gt;&lt;span style=&quot;font-weight: normal;&quot;&gt;&lt;font style=&quot;font-size: 12px;&quot;&gt;Multi-Cloud&lt;/font&gt;&lt;/span&gt;&lt;/div&gt;" style="rounded=1;whiteSpace=wrap;html=1;strokeColor=#475E75;fillColor=#ffffff;arcSize=24;absoluteArcSize=1;imageWidth=64;imageHeight=64;strokeWidth=1.5;part=1;verticalAlign=top;align=left;fontSize=16;fontStyle=1;spacingLeft=10;spacingTop=10;" vertex="1" parent="BptUhg1o3gFt8rA6bAoc-45">
          <mxGeometry x="9.51807228915663" y="49.26229508196721" width="770.963855421687" height="423.655737704918" as="geometry" />
        </mxCell>
        <mxCell id="BptUhg1o3gFt8rA6bAoc-58" value="" style="rounded=1;whiteSpace=wrap;html=1;strokeColor=#0070F2;fillColor=#EBF8FF;arcSize=24;absoluteArcSize=1;imageWidth=64;imageHeight=64;strokeWidth=1.5;" vertex="1" parent="BptUhg1o3gFt8rA6bAoc-45">
          <mxGeometry x="18.58823529411765" y="79.80491803278689" width="316" height="315.27868852459017" as="geometry" />
        </mxCell>
        <mxCell id="BptUhg1o3gFt8rA6bAoc-59" value="" style="rounded=1;whiteSpace=wrap;html=1;strokeColor=#0070F2;fillColor=#ffffff;arcSize=24;absoluteArcSize=1;imageWidth=64;imageHeight=64;strokeWidth=1.5;part=1;verticalAlign=top;align=left;fontSize=16;fontStyle=1;spacingLeft=10;spacingTop=10;" vertex="1" parent="BptUhg1o3gFt8rA6bAoc-58">
          <mxGeometry x="13.941176470588236" y="68.9672131147541" width="288.11764705882354" height="226.60655737704917" as="geometry" />
        </mxCell>
        <mxCell id="BptUhg1o3gFt8rA6bAoc-60" value="SAP Build Work Zone&lt;br&gt;&lt;span style=&quot;font-weight: normal;&quot;&gt;&lt;font style=&quot;font-size: 12px;&quot;&gt;BTP Service&lt;/font&gt;&lt;/span&gt;" style="shape=mxgraph.sap.icon;labelPosition=right;verticalLabelPosition=middle;align=left;verticalAlign=middle;strokeWidth=1;strokeColor=#D5DADD;fillColor=#EDEFF0;gradientColor=#FCFCFC;gradientDirection=west;aspect=fixed;SAPIcon=SAP_Build_Work_Zone_-_Standard_Edition;fontSize=16;fontStyle=1;html=1;spacingLeft=10;spacing=0;" vertex="1" parent="BptUhg1o3gFt8rA6bAoc-58">
          <mxGeometry x="26.023529411764706" y="13.793442622950819" width="44.61176470588235" height="44.61176470588235" as="geometry" />
        </mxCell>
        <mxCell id="BptUhg1o3gFt8rA6bAoc-62" value="UI5 flexibility&#xa;for key users" style="shape=mxgraph.sap.icon;labelPosition=center;verticalLabelPosition=bottom;align=center;verticalAlign=top;strokeWidth=1;strokeColor=#D5DADD;fillColor=#EDEFF0;gradientColor=#FCFCFC;gradientDirection=west;aspect=fixed;SAPIcon=UI5_flexibility_for_key_users" vertex="1" parent="BptUhg1o3gFt8rA6bAoc-58">
          <mxGeometry x="143.12941176470588" y="88.67213114754098" width="29.741176470588236" height="29.741176470588236" as="geometry" />
        </mxCell>
        <mxCell id="BptUhg1o3gFt8rA6bAoc-63" value="Mobile&#xa;Services" style="shape=mxgraph.sap.icon;labelPosition=center;verticalLabelPosition=bottom;align=center;verticalAlign=top;strokeWidth=1;strokeColor=#D5DADD;fillColor=#EDEFF0;gradientColor=#FCFCFC;gradientDirection=west;aspect=fixed;SAPIcon=SAP_Mobile_Services" vertex="1" parent="BptUhg1o3gFt8rA6bAoc-58">
          <mxGeometry x="230.49411764705883" y="88.67213114754098" width="29.741176470588236" height="29.741176470588236" as="geometry" />
        </mxCell>
        <mxCell id="BptUhg1o3gFt8rA6bAoc-64" value="Navigation&#xa;Service" style="shape=image;editableCssRules=.*;verticalLabelPosition=bottom;labelBackgroundColor=default;verticalAlign=top;aspect=fixed;imageAspect=0;image=data:image/svg+xml,PHN2ZyB4bWxucz0iaHR0cDovL3d3dy53My5vcmcvMjAwMC9zdmciIHZpZXdCb3g9Ii0wLjUgLTAuNSAyNS4yIDI4IiBoZWlnaHQ9IjI4IiB3aWR0aD0iMjUuMiI+JiN4YTsJICA8c3R5bGUgdHlwZT0idGV4dC9jc3MiPiYjeGE7CQkuc3Qwe3N0b3AtY29sb3I6IzAwY2VhYzt9JiN4YTsJCS5zdDF7c3RvcC1jb2xvcjojMDc4MzhmO30mI3hhOwkgIDwvc3R5bGU+JiN4YTsJPGRlZnM+JiN4YTsJCTxsaW5lYXJHcmFkaWVudCBncmFkaWVudFVuaXRzPSJ1c2VyU3BhY2VPblVzZSIgeTI9IjIzLjA1NyIgeDI9IjIzLjEyNiIgeTE9IjMuNDc0IiB4MT0iMS43ODUiIGlkPSJBIj4mI3hhOwkJCTxzdG9wIGNsYXNzPSJzdDAiLz4mI3hhOwkJCTxzdG9wIGNsYXNzPSJzdDEiIG9mZnNldD0iMSIvPiYjeGE7CQk8L2xpbmVhckdyYWRpZW50PiYjeGE7CTwvZGVmcz4mI3hhOwk8cGF0aCBmaWxsPSJ1cmwoI0EpIiBkPSJNMTEuNzU3LS40ODNDMTEuNDQ1LS40MDEuMTg0IDQuNzExLjAyIDQuODM3YTEuNzkgMS43OSAwIDAgMC0uMzU2LjQ3MWwtLjE2NC4zMjN2Ny44ODJWMjEuNGwuMTM3LjI2OGMuMDc3LjE0OC4yMjQuMzQ1LjMzOS40MzguMTMxLjExNSAyLjE3MiAxLjA2MiA1Ljk1OSAyLjc2NCA2LjE4MyAyLjc4MSA2LjA3NCAyLjczNyA2LjU3NyAyLjU2Mi4zOTktLjEzNyAxMS4zNy01LjA4NSAxMS41OTUtNS4yMjcuMjMtLjE0OC40Ni0uNDYuNTM2LS43MjguMDgyLS4yNzQuMDcxLTE1LjY2NS0uMDA2LTE1Ljk1LS4wODItLjI4NS0uMzM0LS42MzUtLjU1OC0uNzY2LS4wOTMtLjA2LTIuNzM2LTEuMjY0LTUuODY2LTIuNjcxLTUuMTYtMi4zMjYtNS43MjQtMi41NjctNi4wMTktMi41ODQtLjE4MS0uMDExLS4zNzgtLjAwNS0uNDM4LjAxMXptNC4yMjQgNC42NTNsMy44MDggMS43NzNjLS4wNjYuMDY2LTcuNTg0IDMuNDQ4LTcuNjc3IDMuNDU0YTM0OS43NSAzNDkuNzUgMCAwIDEtNy43MjYtMy40NTRjLS4wMzMtLjAyNyA3LjU3My0zLjQ5MiA3LjY5My0zLjUwMy4wMjctLjAwNSAxLjc4NC43NzIgMy45MDEgMS43M3ptLTkuNDIzIDUuODQ2bDQuMTMxIDEuODYxdjYuMDA1bC0uMDM4IDYuMDFjLS4wMTYgMC0xLjkwNC0uODQzLTQuMTg2LTEuODY3bC00LjE0OC0xLjg3MnYtNi4wMTVsLjA1NS01Ljk5OWMuMDI3LjAwNSAxLjkxLjg1NCA0LjE4NiAxLjg3N3ptMTUuMzQ5IDQuMTIydjYuMDFsLTQuMTE1IDEuODU1LTQuMjEzIDEuODc4Yy0uMDkzLjAyMi0uMDk4LS4yNzQtLjA4OC01Ljk4OGwuMDE2LTYuMDEgNC4xNTgtMS44NzcgNC4yMDMtMS44NzdjLjAyMiAwIC4wMzggMi43MDQuMDM4IDYuMDF6Ii8+JiN4YTs8L3N2Zz4=;" vertex="1" parent="BptUhg1o3gFt8rA6bAoc-58">
          <mxGeometry x="57.15882352941177" y="177.34426229508196" width="23.235294117647058" height="26.023529411764706" as="geometry" />
        </mxCell>
        <mxCell id="BptUhg1o3gFt8rA6bAoc-65" value="Digital Workplace&#xa;Service" style="shape=image;editableCssRules=.*;verticalLabelPosition=bottom;labelBackgroundColor=default;verticalAlign=top;aspect=fixed;imageAspect=0;image=data:image/svg+xml,PHN2ZyB4bWxucz0iaHR0cDovL3d3dy53My5vcmcvMjAwMC9zdmciIHZpZXdCb3g9Ii0wLjUgLTAuNSAyNS4yIDI4IiBoZWlnaHQ9IjI4IiB3aWR0aD0iMjUuMiI+JiN4YTsJICA8c3R5bGUgdHlwZT0idGV4dC9jc3MiPiYjeGE7CQkuc3Qwe3N0b3AtY29sb3I6IzAwY2VhYzt9JiN4YTsJCS5zdDF7c3RvcC1jb2xvcjojMDc4MzhmO30mI3hhOwkgIDwvc3R5bGU+JiN4YTsJPGRlZnM+JiN4YTsJCTxsaW5lYXJHcmFkaWVudCBncmFkaWVudFVuaXRzPSJ1c2VyU3BhY2VPblVzZSIgeTI9IjIzLjA1NyIgeDI9IjIzLjEyNiIgeTE9IjMuNDc0IiB4MT0iMS43ODUiIGlkPSJBIj4mI3hhOwkJCTxzdG9wIGNsYXNzPSJzdDAiLz4mI3hhOwkJCTxzdG9wIGNsYXNzPSJzdDEiIG9mZnNldD0iMSIvPiYjeGE7CQk8L2xpbmVhckdyYWRpZW50PiYjeGE7CTwvZGVmcz4mI3hhOwk8cGF0aCBmaWxsPSJ1cmwoI0EpIiBkPSJNMTEuNzU3LS40ODNDMTEuNDQ1LS40MDEuMTg0IDQuNzExLjAyIDQuODM3YTEuNzkgMS43OSAwIDAgMC0uMzU2LjQ3MWwtLjE2NC4zMjN2Ny44ODJWMjEuNGwuMTM3LjI2OGMuMDc3LjE0OC4yMjQuMzQ1LjMzOS40MzguMTMxLjExNSAyLjE3MiAxLjA2MiA1Ljk1OSAyLjc2NCA2LjE4MyAyLjc4MSA2LjA3NCAyLjczNyA2LjU3NyAyLjU2Mi4zOTktLjEzNyAxMS4zNy01LjA4NSAxMS41OTUtNS4yMjcuMjMtLjE0OC40Ni0uNDYuNTM2LS43MjguMDgyLS4yNzQuMDcxLTE1LjY2NS0uMDA2LTE1Ljk1LS4wODItLjI4NS0uMzM0LS42MzUtLjU1OC0uNzY2LS4wOTMtLjA2LTIuNzM2LTEuMjY0LTUuODY2LTIuNjcxLTUuMTYtMi4zMjYtNS43MjQtMi41NjctNi4wMTktMi41ODQtLjE4MS0uMDExLS4zNzgtLjAwNS0uNDM4LjAxMXptNC4yMjQgNC42NTNsMy44MDggMS43NzNjLS4wNjYuMDY2LTcuNTg0IDMuNDQ4LTcuNjc3IDMuNDU0YTM0OS43NSAzNDkuNzUgMCAwIDEtNy43MjYtMy40NTRjLS4wMzMtLjAyNyA3LjU3My0zLjQ5MiA3LjY5My0zLjUwMy4wMjctLjAwNSAxLjc4NC43NzIgMy45MDEgMS43M3ptLTkuNDIzIDUuODQ2bDQuMTMxIDEuODYxdjYuMDA1bC0uMDM4IDYuMDFjLS4wMTYgMC0xLjkwNC0uODQzLTQuMTg2LTEuODY3bC00LjE0OC0xLjg3MnYtNi4wMTVsLjA1NS01Ljk5OWMuMDI3LjAwNSAxLjkxLjg1NCA0LjE4NiAxLjg3N3ptMTUuMzQ5IDQuMTIydjYuMDFsLTQuMTE1IDEuODU1LTQuMjEzIDEuODc4Yy0uMDkzLjAyMi0uMDk4LS4yNzQtLjA4OC01Ljk4OGwuMDE2LTYuMDEgNC4xNTgtMS44NzcgNC4yMDMtMS44NzdjLjAyMiAwIC4wMzggMi43MDQuMDM4IDYuMDF6Ii8+JiN4YTs8L3N2Zz4=;" vertex="1" parent="BptUhg1o3gFt8rA6bAoc-58">
          <mxGeometry x="146.38235294117646" y="177.34426229508196" width="23.235294117647058" height="26.023529411764706" as="geometry" />
        </mxCell>
        <mxCell id="BptUhg1o3gFt8rA6bAoc-66" value="UI Theme&#xa;Designer" style="shape=image;editableCssRules=.*;verticalLabelPosition=bottom;labelBackgroundColor=default;verticalAlign=top;aspect=fixed;imageAspect=0;image=data:image/svg+xml,PHN2ZyB4bWxucz0iaHR0cDovL3d3dy53My5vcmcvMjAwMC9zdmciIHZpZXdCb3g9Ii0wLjUgLTAuNSAyNS4yIDI4IiBoZWlnaHQ9IjI4IiB3aWR0aD0iMjUuMiI+JiN4YTsJICA8c3R5bGUgdHlwZT0idGV4dC9jc3MiPiYjeGE7CQkuc3Qwe3N0b3AtY29sb3I6IzAwY2VhYzt9JiN4YTsJCS5zdDF7c3RvcC1jb2xvcjojMDc4MzhmO30mI3hhOwkgIDwvc3R5bGU+JiN4YTsJPGRlZnM+JiN4YTsJCTxsaW5lYXJHcmFkaWVudCBncmFkaWVudFVuaXRzPSJ1c2VyU3BhY2VPblVzZSIgeTI9IjIzLjA1NyIgeDI9IjIzLjEyNiIgeTE9IjMuNDc0IiB4MT0iMS43ODUiIGlkPSJBIj4mI3hhOwkJCTxzdG9wIGNsYXNzPSJzdDAiLz4mI3hhOwkJCTxzdG9wIGNsYXNzPSJzdDEiIG9mZnNldD0iMSIvPiYjeGE7CQk8L2xpbmVhckdyYWRpZW50PiYjeGE7CTwvZGVmcz4mI3hhOwk8cGF0aCBmaWxsPSJ1cmwoI0EpIiBkPSJNMTEuNzU3LS40ODNDMTEuNDQ1LS40MDEuMTg0IDQuNzExLjAyIDQuODM3YTEuNzkgMS43OSAwIDAgMC0uMzU2LjQ3MWwtLjE2NC4zMjN2Ny44ODJWMjEuNGwuMTM3LjI2OGMuMDc3LjE0OC4yMjQuMzQ1LjMzOS40MzguMTMxLjExNSAyLjE3MiAxLjA2MiA1Ljk1OSAyLjc2NCA2LjE4MyAyLjc4MSA2LjA3NCAyLjczNyA2LjU3NyAyLjU2Mi4zOTktLjEzNyAxMS4zNy01LjA4NSAxMS41OTUtNS4yMjcuMjMtLjE0OC40Ni0uNDYuNTM2LS43MjguMDgyLS4yNzQuMDcxLTE1LjY2NS0uMDA2LTE1Ljk1LS4wODItLjI4NS0uMzM0LS42MzUtLjU1OC0uNzY2LS4wOTMtLjA2LTIuNzM2LTEuMjY0LTUuODY2LTIuNjcxLTUuMTYtMi4zMjYtNS43MjQtMi41NjctNi4wMTktMi41ODQtLjE4MS0uMDExLS4zNzgtLjAwNS0uNDM4LjAxMXptNC4yMjQgNC42NTNsMy44MDggMS43NzNjLS4wNjYuMDY2LTcuNTg0IDMuNDQ4LTcuNjc3IDMuNDU0YTM0OS43NSAzNDkuNzUgMCAwIDEtNy43MjYtMy40NTRjLS4wMzMtLjAyNyA3LjU3My0zLjQ5MiA3LjY5My0zLjUwMy4wMjctLjAwNSAxLjc4NC43NzIgMy45MDEgMS43M3ptLTkuNDIzIDUuODQ2bDQuMTMxIDEuODYxdjYuMDA1bC0uMDM4IDYuMDFjLS4wMTYgMC0xLjkwNC0uODQzLTQuMTg2LTEuODY3bC00LjE0OC0xLjg3MnYtNi4wMTVsLjA1NS01Ljk5OWMuMDI3LjAwNSAxLjkxLjg1NCA0LjE4NiAxLjg3N3ptMTUuMzQ5IDQuMTIydjYuMDFsLTQuMTE1IDEuODU1LTQuMjEzIDEuODc4Yy0uMDkzLjAyMi0uMDk4LS4yNzQtLjA4OC01Ljk4OGwuMDE2LTYuMDEgNC4xNTgtMS44NzcgNC4yMDMtMS44NzdjLjAyMiAwIC4wMzggMi43MDQuMDM4IDYuMDF6Ii8+JiN4YTs8L3N2Zz4=;" vertex="1" parent="BptUhg1o3gFt8rA6bAoc-58">
          <mxGeometry x="233.74705882352941" y="177.34426229508196" width="23.235294117647058" height="26.023529411764706" as="geometry" />
        </mxCell>
        <mxCell id="BptUhg1o3gFt8rA6bAoc-67" value="User Store" style="rounded=1;whiteSpace=wrap;html=1;strokeColor=#0070F2;strokeWidth=1.5;arcSize=16;fillColor=#EBF8FF;perimeterSpacing=0;absoluteArcSize=1;fontColor=#0070F2;fontSize=11;fontStyle=0" vertex="1" parent="BptUhg1o3gFt8rA6bAoc-58">
          <mxGeometry x="125.47058823529412" y="246.31147540983605" width="65.05882352941177" height="19.704918032786885" as="geometry" />
        </mxCell>
        <mxCell id="BptUhg1o3gFt8rA6bAoc-68" style="edgeStyle=elbowEdgeStyle;rounded=0;orthogonalLoop=1;jettySize=auto;html=1;endArrow=blockThin;endFill=1;strokeWidth=1.5;strokeColor=#188918;endSize=4;startSize=4;" edge="1" parent="BptUhg1o3gFt8rA6bAoc-45">
          <mxGeometry relative="1" as="geometry">
            <mxPoint x="109.67058823529412" y="397.0540983606557" as="targetPoint" />
            <mxPoint x="109.67058823529412" y="454.1983606557377" as="sourcePoint" />
          </mxGeometry>
        </mxCell>
        <mxCell id="BptUhg1o3gFt8rA6bAoc-69" value="OIDC" style="rounded=1;whiteSpace=wrap;html=1;strokeColor=#188918;strokeWidth=1.5;arcSize=16;fillColor=#F5FAE5;perimeterSpacing=0;absoluteArcSize=1;fontColor=#188918;fontSize=10;fontStyle=1" vertex="1" parent="BptUhg1o3gFt8rA6bAoc-45">
          <mxGeometry x="91.08235294117647" y="414.78852459016395" width="37.1764705882353" height="15.763934426229508" as="geometry" />
        </mxCell>
        <mxCell id="BptUhg1o3gFt8rA6bAoc-70" value="User and role provisioning" style="edgeStyle=elbowEdgeStyle;rounded=0;orthogonalLoop=1;jettySize=auto;html=1;endArrow=blockThin;endFill=1;strokeWidth=1.5;strokeColor=#470BED;endSize=4;startSize=4;entryX=0.5;entryY=1;entryDx=0;entryDy=0;align=right;fontColor=#1D2D3E;fontSize=10;spacingRight=5;" edge="1" target="BptUhg1o3gFt8rA6bAoc-67" parent="BptUhg1o3gFt8rA6bAoc-45">
          <mxGeometry x="0.6364" relative="1" as="geometry">
            <mxPoint x="176.58823529411765" y="397.0540983606557" as="targetPoint" />
            <mxPoint x="176.58823529411765" y="454.1983606557377" as="sourcePoint" />
            <mxPoint as="offset" />
          </mxGeometry>
        </mxCell>
        <mxCell id="BptUhg1o3gFt8rA6bAoc-71" value="SCIM" style="rounded=1;whiteSpace=wrap;html=1;strokeColor=#470BED;strokeWidth=1.5;arcSize=16;fillColor=#F1ECFF;perimeterSpacing=0;absoluteArcSize=1;fontColor=#470BED;fontSize=10;fontStyle=1" vertex="1" parent="BptUhg1o3gFt8rA6bAoc-45">
          <mxGeometry x="158" y="414.78852459016395" width="37.1764705882353" height="15.763934426229508" as="geometry" />
        </mxCell>
        <mxCell id="BptUhg1o3gFt8rA6bAoc-72" style="edgeStyle=orthogonalEdgeStyle;rounded=0;orthogonalLoop=1;jettySize=auto;html=1;strokeColor=#0070F2;endArrow=none;endFill=0;strokeWidth=1.5;sourcePerimeterSpacing=50;targetPerimeterSpacing=5;" edge="1" source="BptUhg1o3gFt8rA6bAoc-73" target="BptUhg1o3gFt8rA6bAoc-78" parent="BptUhg1o3gFt8rA6bAoc-45">
          <mxGeometry relative="1" as="geometry">
            <Array as="points">
              <mxPoint x="386.63529411764705" y="134.97868852459015" />
              <mxPoint x="421.9529411764706" y="134.97868852459015" />
            </Array>
          </mxGeometry>
        </mxCell>
        <mxCell id="BptUhg1o3gFt8rA6bAoc-73" value="SAP Build&#xa;Process&#xa;Automation" style="shape=mxgraph.sap.icon;labelPosition=center;verticalLabelPosition=bottom;align=center;verticalAlign=top;strokeWidth=1;strokeColor=#D5DADD;fillColor=#EDEFF0;gradientColor=#FCFCFC;gradientDirection=west;aspect=fixed;SAPIcon=SAP_Build_Process_Automation;fontColor=#1D2D3E;" vertex="1" parent="BptUhg1o3gFt8rA6bAoc-45">
          <mxGeometry x="371.7647058823529" y="40.395081967213116" width="29.741176470588236" height="29.741176470588236" as="geometry" />
        </mxCell>
        <mxCell id="BptUhg1o3gFt8rA6bAoc-157" value="" style="edgeStyle=orthogonalEdgeStyle;rounded=0;orthogonalLoop=1;jettySize=auto;html=1;" edge="1" parent="BptUhg1o3gFt8rA6bAoc-45" source="BptUhg1o3gFt8rA6bAoc-74" target="BptUhg1o3gFt8rA6bAoc-79">
          <mxGeometry relative="1" as="geometry" />
        </mxCell>
        <mxCell id="BptUhg1o3gFt8rA6bAoc-74" value="SAP Build&#xa;Code" style="shape=mxgraph.sap.icon;labelPosition=center;verticalLabelPosition=bottom;align=center;verticalAlign=top;strokeWidth=1;strokeColor=#D5DADD;fillColor=#EDEFF0;gradientColor=#FCFCFC;gradientDirection=west;aspect=fixed;SAPIcon=Business_Application_Studio;fontColor=#1D2D3E;points=[];" vertex="1" parent="BptUhg1o3gFt8rA6bAoc-45">
          <mxGeometry x="448.9058823529412" y="40.395081967213116" width="29.741176470588236" height="29.741176470588236" as="geometry" />
        </mxCell>
        <mxCell id="BptUhg1o3gFt8rA6bAoc-75" value="SAP Build&#xa;Apps" style="shape=mxgraph.sap.icon;labelPosition=center;verticalLabelPosition=bottom;align=center;verticalAlign=top;strokeWidth=1;strokeColor=#D5DADD;fillColor=#EDEFF0;gradientColor=#FCFCFC;gradientDirection=west;aspect=fixed;SAPIcon=SAP_Build_Apps;fontColor=#1D2D3E;" vertex="1" parent="BptUhg1o3gFt8rA6bAoc-45">
          <mxGeometry x="526.9764705882353" y="40.395081967213116" width="29.741176470588236" height="29.741176470588236" as="geometry" />
        </mxCell>
        <mxCell id="BptUhg1o3gFt8rA6bAoc-76" value="SAP Task&#xa;Center" style="shape=mxgraph.sap.icon;labelPosition=center;verticalLabelPosition=bottom;align=center;verticalAlign=top;strokeWidth=1;strokeColor=#D5DADD;fillColor=#EDEFF0;gradientColor=#FCFCFC;gradientDirection=west;aspect=fixed;SAPIcon=SAP_Task_Center;fontColor=#1D2D3E;" vertex="1" parent="BptUhg1o3gFt8rA6bAoc-45">
          <mxGeometry x="604.1176470588235" y="40.395081967213116" width="29.741176470588236" height="29.741176470588236" as="geometry" />
        </mxCell>
        <mxCell id="BptUhg1o3gFt8rA6bAoc-77" style="edgeStyle=orthogonalEdgeStyle;rounded=0;orthogonalLoop=1;jettySize=auto;html=1;endArrow=blockThin;endFill=1;strokeWidth=1.5;strokeColor=#0070F2;endSize=4;startSize=4;targetPerimeterSpacing=2;" edge="1" source="BptUhg1o3gFt8rA6bAoc-78" target="BptUhg1o3gFt8rA6bAoc-79" parent="BptUhg1o3gFt8rA6bAoc-45">
          <mxGeometry relative="1" as="geometry">
            <mxPoint x="483.29411764705884" y="194.09344262295082" as="targetPoint" />
            <Array as="points">
              <mxPoint x="421.9529411764706" y="174.38852459016394" />
              <mxPoint x="421.9529411764706" y="174.38852459016394" />
            </Array>
          </mxGeometry>
        </mxCell>
        <mxCell id="BptUhg1o3gFt8rA6bAoc-78" value="Deploy custom&#xa;and default apps" style="shape=image;editableCssRules=.*;verticalLabelPosition=middle;labelBackgroundColor=none;verticalAlign=middle;aspect=fixed;imageAspect=0;image=data:image/svg+xml,PHN2ZyB4bWxucz0iaHR0cDovL3d3dy53My5vcmcvMjAwMC9zdmciIHZpZXdCb3g9Ii0wLjUgLTAuNSAyNS4yNjYgMjgiIGhlaWdodD0iMjgiIHdpZHRoPSIyNS4yNjYiPiYjeGE7CSAgPHN0eWxlIHR5cGU9InRleHQvY3NzIj4uc3QwIHsgc3RvcC1jb2xvcjogcmdiKDM1LCAxNDksIDI1NSk7IH0gLnN0MSB7IHN0b3AtY29sb3I6IHJnYigwLCA4NywgMjEwKTsgfSA8L3N0eWxlPiYjeGE7CTxkZWZzPiYjeGE7CQk8bGluZWFyR3JhZGllbnQgZ3JhZGllbnRVbml0cz0idXNlclNwYWNlT25Vc2UiIHkyPSIyMy4xMTIiIHgyPSIyMy4xMzYiIHkxPSIzLjQ3NCIgeDE9IjEuNzkxIiBpZD0iQSI+JiN4YTsJCQk8c3RvcCBjbGFzcz0ic3QwIi8+JiN4YTsJCQk8c3RvcCBjbGFzcz0ic3QxIiBvZmZzZXQ9IjEiLz4mI3hhOwkJPC9saW5lYXJHcmFkaWVudD4mI3hhOwk8L2RlZnM+JiN4YTsJPHBhdGggZmlsbD0idXJsKCNBKSIgZD0iTTI0LjE2NCA2LjY2NGMuNDAxLjI1NS42MDIuNTgzLjYwMi45ODQgMCAuMTA5LS4wMTguMjAxLS4wNTUuMjczdjExLjE1NkExLjM5IDEuMzkgMCAwIDEgMjQgMjAuMzM2bC0xMS4xMDIgNi45NDVjLS4yNTUuMTQ2LS41MjkuMjE5LS44Mi4yMTktLjMyOCAwLS41NjUtLjA3My0uNzExLS4yMTlMLjIxMSAyMC4zMzZhMS43NSAxLjc1IDAgMCAxLS41NDctLjYwMWMtLjEwOS0uMjU1LS4xNjQtLjQ3NC0uMTY0LS42NTZWNy45MjJhMS4zOSAxLjM5IDAgMCAxIC43MTEtMS4yNThsNS41NzgtMy41Yy4yOTItLjEwOS41NjUtLjE2NC44Mi0uMTY0cy40OTIuMDU1LjcxMS4xNjRsMTEuMTU2IDdjLjE4Mi4wNzMuMzI4LjIzNy40MzguNDkyLjE0Ni4yMTkuMjE5LjQxOS4yMTkuNjAydjQuODY3YzAgLjk0OC0uNDU2IDEuNDIyLTEuMzY3IDEuNDIyLS40MDEgMC0uNzQ3LS4xMjgtMS4wMzktLjM4My0uMjU1LS4yNTUtLjM4My0uNjAyLS4zODMtMS4wMzl2LTQuMDQ3TDYuNjA5IDUuOTUzbC00LjE1NiAyLjY4djkuNjI1bDkuNzM0IDYuMTI1IDkuNzM0LTYuMTI1VjguNjMzTDExLjQ3NyAyLjA3Yy0uNDM3LS4yOTItLjY1Ni0uNjc0LS42NTYtMS4xNDggMC0uMTgyLjA3My0uNDU2LjIxOS0uODIuMzI4LS40MDEuNzQ3LS42MDIgMS4yNTgtLjYwMi4yOTIgMCAuNTI5LjA3My43MTEuMjE5ek0xMC4yNzMgMTcuMzgzYy40MzguMjU1LjY1Ni42MzguNjU2IDEuMTQ4IDAgLjI5Mi0uMDczLjU2NS0uMjE5LjgyLS4yOTIuNDAxLS43MTEuNjAyLTEuMjU4LjYwMmExLjU3IDEuNTcgMCAwIDEtLjcxMS0uMTY0bC0yLjc4OS0xLjY5NWMtLjQzNy0uMjkyLS42NTYtLjY1Ni0uNjU2LTEuMDk0IDAtLjI5Mi4wOTEtLjU4My4yNzMtLjg3NS4zMjgtLjQwMS43MjktLjYwMiAxLjIwMy0uNjAyLjI5MiAwIC41MjkuMDczLjcxMS4yMTl6Ii8+JiN4YTs8L3N2Zz4=;labelPosition=right;align=left;fontSize=10;fontColor=#556B82;" vertex="1" parent="BptUhg1o3gFt8rA6bAoc-45">
          <mxGeometry x="410.3352941176471" y="143.84590163934425" width="23.235294117647058" height="26.023529411764706" as="geometry" />
        </mxCell>
        <mxCell id="BptUhg1o3gFt8rA6bAoc-130" style="edgeStyle=orthogonalEdgeStyle;rounded=0;orthogonalLoop=1;jettySize=auto;html=1;" edge="1" parent="BptUhg1o3gFt8rA6bAoc-45" source="BptUhg1o3gFt8rA6bAoc-79" target="BptUhg1o3gFt8rA6bAoc-126">
          <mxGeometry relative="1" as="geometry" />
        </mxCell>
        <mxCell id="BptUhg1o3gFt8rA6bAoc-79" value="HTML5 App&#xa;Repository" style="shape=mxgraph.sap.icon;labelPosition=center;verticalLabelPosition=bottom;align=center;verticalAlign=top;strokeWidth=1;strokeColor=#D5DADD;fillColor=#EDEFF0;gradientColor=#FCFCFC;gradientDirection=west;aspect=fixed;SAPIcon=HTML5_App_Repository;fontColor=#1D2D3E;" vertex="1" parent="BptUhg1o3gFt8rA6bAoc-45">
          <mxGeometry x="407.0823529411765" y="186.21147540983605" width="29.741176470588236" height="29.741176470588236" as="geometry" />
        </mxCell>
        <mxCell id="BptUhg1o3gFt8rA6bAoc-80" value="Destination" style="shape=mxgraph.sap.icon;labelPosition=center;verticalLabelPosition=bottom;align=center;verticalAlign=top;strokeWidth=1;strokeColor=#D5DADD;fillColor=#EDEFF0;gradientColor=#FCFCFC;gradientDirection=west;aspect=fixed;SAPIcon=SAP_Destination_service;fontColor=#1D2D3E;" vertex="1" parent="BptUhg1o3gFt8rA6bAoc-45">
          <mxGeometry x="415.00176470588235" y="321.00114754098354" width="29.741176470588236" height="29.741176470588236" as="geometry" />
        </mxCell>
        <mxCell id="BptUhg1o3gFt8rA6bAoc-84" style="edgeStyle=orthogonalEdgeStyle;rounded=0;orthogonalLoop=1;jettySize=auto;html=1;strokeColor=#0070F2;endArrow=none;endFill=0;strokeWidth=1.5;sourcePerimeterSpacing=50;targetPerimeterSpacing=5;" edge="1" source="BptUhg1o3gFt8rA6bAoc-74" target="BptUhg1o3gFt8rA6bAoc-78" parent="BptUhg1o3gFt8rA6bAoc-45">
          <mxGeometry relative="1" as="geometry">
            <mxPoint x="464.7058823529412" y="75.8639344262295" as="sourcePoint" />
            <mxPoint x="431.2470588235294" y="154.68360655737703" as="targetPoint" />
            <Array as="points">
              <mxPoint x="464.7058823529412" y="134.97868852459015" />
              <mxPoint x="421.9529411764706" y="134.97868852459015" />
            </Array>
          </mxGeometry>
        </mxCell>
        <mxCell id="BptUhg1o3gFt8rA6bAoc-85" style="edgeStyle=orthogonalEdgeStyle;rounded=0;orthogonalLoop=1;jettySize=auto;html=1;strokeColor=#0070F2;endArrow=none;endFill=0;strokeWidth=1.5;sourcePerimeterSpacing=35;targetPerimeterSpacing=5;" edge="1" source="BptUhg1o3gFt8rA6bAoc-75" target="BptUhg1o3gFt8rA6bAoc-78" parent="BptUhg1o3gFt8rA6bAoc-45">
          <mxGeometry relative="1" as="geometry">
            <mxPoint x="476.78823529411767" y="81.77540983606558" as="sourcePoint" />
            <mxPoint x="431.2470588235294" y="154.68360655737703" as="targetPoint" />
            <Array as="points">
              <mxPoint x="545.564705882353" y="134.97868852459015" />
              <mxPoint x="421.9529411764706" y="134.97868852459015" />
            </Array>
          </mxGeometry>
        </mxCell>
        <mxCell id="BptUhg1o3gFt8rA6bAoc-86" style="edgeStyle=orthogonalEdgeStyle;rounded=0;orthogonalLoop=1;jettySize=auto;html=1;strokeColor=#0070F2;endArrow=none;endFill=0;strokeWidth=1.5;sourcePerimeterSpacing=35;targetPerimeterSpacing=5;" edge="1" source="BptUhg1o3gFt8rA6bAoc-76" target="BptUhg1o3gFt8rA6bAoc-78" parent="BptUhg1o3gFt8rA6bAoc-45">
          <mxGeometry relative="1" as="geometry">
            <mxPoint x="486.0823529411765" y="91.62786885245902" as="sourcePoint" />
            <mxPoint x="440.54117647058825" y="164.5360655737705" as="targetPoint" />
            <Array as="points">
              <mxPoint x="622.7058823529412" y="134.97868852459015" />
              <mxPoint x="421.9529411764706" y="134.97868852459015" />
            </Array>
          </mxGeometry>
        </mxCell>
        <mxCell id="BptUhg1o3gFt8rA6bAoc-87" value="read and display" style="edgeStyle=elbowEdgeStyle;rounded=0;orthogonalLoop=1;jettySize=auto;html=1;strokeColor=#475E75;endArrow=blockThin;endFill=1;strokeWidth=1.5;sourcePerimeterSpacing=0;targetPerimeterSpacing=0;endSize=4;startSize=4;elbow=vertical;verticalAlign=bottom;fontSize=10;labelBackgroundColor=none;fontColor=#556B82;" edge="1" parent="BptUhg1o3gFt8rA6bAoc-45">
          <mxGeometry relative="1" as="geometry">
            <mxPoint x="334.5882352941177" y="202.9606557377049" as="sourcePoint" />
            <mxPoint x="407.0823529411765" y="203.1577049180326" as="targetPoint" />
          </mxGeometry>
        </mxCell>
        <mxCell id="BptUhg1o3gFt8rA6bAoc-88" style="edgeStyle=elbowEdgeStyle;rounded=0;orthogonalLoop=1;jettySize=auto;html=1;strokeColor=#475E75;endArrow=blockThin;endFill=1;strokeWidth=1.5;sourcePerimeterSpacing=0;targetPerimeterSpacing=0;endSize=4;startSize=4;elbow=vertical;" edge="1" parent="BptUhg1o3gFt8rA6bAoc-45">
          <mxGeometry relative="1" as="geometry">
            <mxPoint x="334.5882352941177" y="334.78032786885245" as="sourcePoint" />
            <mxPoint x="407.0823529411765" y="334.9773770491801" as="targetPoint" />
          </mxGeometry>
        </mxCell>
        <mxCell id="BptUhg1o3gFt8rA6bAoc-126" value="SAP AI Document &#xa;Extraction" style="shape=mxgraph.sap.icon;labelPosition=center;verticalLabelPosition=bottom;align=center;verticalAlign=top;strokeWidth=1;strokeColor=#D5DADD;fillColor=#EDEFF0;gradientColor=#FCFCFC;gradientDirection=west;aspect=fixed;SAPIcon=Document_Information_Extraction" vertex="1" parent="BptUhg1o3gFt8rA6bAoc-45">
          <mxGeometry x="700" y="79.80000000000001" width="50" height="50" as="geometry" />
        </mxCell>
        <mxCell id="BptUhg1o3gFt8rA6bAoc-142" value="SAP Cloud&#xa;Identity&#xa;Services" style="strokeColor=#0070F2;shadow=0;strokeWidth=1.5;rounded=1;absoluteArcSize=1;arcSize=20;align=left;fontSize=16;fontStyle=1;spacingLeft=15;spacing=0;container=1;collapsible=0;fontColor=#1D2D3E;" vertex="1" parent="BptUhg1o3gFt8rA6bAoc-45">
          <mxGeometry x="30" y="451" width="360" height="100" as="geometry" />
        </mxCell>
        <mxCell id="BptUhg1o3gFt8rA6bAoc-143" value="Identity&#xa;Directory" style="shape=mxgraph.sap.icon;labelPosition=center;verticalLabelPosition=bottom;align=center;verticalAlign=top;strokeWidth=1;strokeColor=#D5DADD;fillColor=#EDEFF0;gradientColor=#FCFCFC;gradientDirection=west;aspect=fixed;SAPIcon=Identity_Directory;fontColor=#1D2D3E;" vertex="1" parent="BptUhg1o3gFt8rA6bAoc-142">
          <mxGeometry x="130" y="19.5" width="30" height="30" as="geometry" />
        </mxCell>
        <mxCell id="BptUhg1o3gFt8rA6bAoc-144" value="Identity&#xa;Authentication" style="shape=mxgraph.sap.icon;labelPosition=center;verticalLabelPosition=bottom;align=center;verticalAlign=top;strokeWidth=1;strokeColor=#D5DADD;fillColor=#EDEFF0;gradientColor=#FCFCFC;gradientDirection=west;aspect=fixed;SAPIcon=Identity_Provisioning;fontColor=#1D2D3E;" vertex="1" parent="BptUhg1o3gFt8rA6bAoc-142">
          <mxGeometry x="219" y="19.5" width="30" height="30" as="geometry" />
        </mxCell>
        <mxCell id="BptUhg1o3gFt8rA6bAoc-145" value="Identity&#xa;Provisioning" style="shape=mxgraph.sap.icon;labelPosition=center;verticalLabelPosition=bottom;align=center;verticalAlign=top;strokeWidth=1;strokeColor=#D5DADD;fillColor=#EDEFF0;gradientColor=#FCFCFC;gradientDirection=west;aspect=fixed;SAPIcon=Identity_Authentication;fontColor=#1D2D3E;" vertex="1" parent="BptUhg1o3gFt8rA6bAoc-142">
          <mxGeometry x="300" y="19.5" width="30" height="30" as="geometry" />
        </mxCell>
        <mxCell id="BptUhg1o3gFt8rA6bAoc-154" value="Adobe Form Service" style="shape=mxgraph.sap.icon;labelPosition=center;verticalLabelPosition=bottom;align=center;verticalAlign=top;strokeWidth=1;strokeColor=#D5DADD;fillColor=#EDEFF0;gradientColor=#FCFCFC;gradientDirection=west;aspect=fixed;SAPIcon=SAP_Cloud_Logging" vertex="1" parent="BptUhg1o3gFt8rA6bAoc-45">
          <mxGeometry x="610" y="227" width="50" height="50" as="geometry" />
        </mxCell>
        <mxCell id="BptUhg1o3gFt8rA6bAoc-156" style="edgeStyle=orthogonalEdgeStyle;rounded=0;orthogonalLoop=1;jettySize=auto;html=1;entryX=0;entryY=0.675;entryDx=0;entryDy=0;entryPerimeter=0;" edge="1" parent="BptUhg1o3gFt8rA6bAoc-45" source="BptUhg1o3gFt8rA6bAoc-79" target="BptUhg1o3gFt8rA6bAoc-154">
          <mxGeometry relative="1" as="geometry" />
        </mxCell>
        <mxCell id="BptUhg1o3gFt8rA6bAoc-92" value="" style="strokeColor=#0070F2;shadow=0;strokeWidth=2;rounded=1;absoluteArcSize=1;arcSize=20;" vertex="1" parent="1">
          <mxGeometry x="850" y="289" width="160" height="210" as="geometry" />
        </mxCell>
        <mxCell id="BptUhg1o3gFt8rA6bAoc-93" value="SAP&lt;br style=&quot;font-size: 16px;&quot;&gt;&lt;font size=&quot;3&quot; style=&quot;&quot;&gt;Success Factors&lt;/font&gt;" style="shape=image;editableCssRules=.*;part=1;verticalLabelPosition=bottom;labelBackgroundColor=none;verticalAlign=top;aspect=fixed;imageAspect=0;image=data:image/svg+xml,PHN2ZyB4bWxucz0iaHR0cDovL3d3dy53My5vcmcvMjAwMC9zdmciIHZpZXdCb3g9Ii0wLjUgLTAuNSAyNi4wODQgMjgiIGhlaWdodD0iMjgiIHdpZHRoPSIyNi4wODQiPiYjeGE7CSAgPHN0eWxlIHR5cGU9InRleHQvY3NzIj4uc3QwIHsgc3RvcC1jb2xvcjogcmdiKDM1LCAxNDksIDI1NSk7IH0gLnN0MSB7IHN0b3AtY29sb3I6IHJnYigwLCA4NywgMjEwKTsgfSA8L3N0eWxlPiYjeGE7CTxkZWZzPiYjeGE7CQk8bGluZWFyR3JhZGllbnQgZ3JhZGllbnRVbml0cz0idXNlclNwYWNlT25Vc2UiIHkyPSIyMy43OTIiIHgyPSIyMy4yNTYiIHkxPSIzLjQ3NCIgeDE9IjEuODY1IiBpZD0iQSI+JiN4YTsJCQk8c3RvcCBjbGFzcz0ic3QwIi8+JiN4YTsJCQk8c3RvcCBjbGFzcz0ic3QxIiBvZmZzZXQ9IjEiLz4mI3hhOwkJPC9saW5lYXJHcmFkaWVudD4mI3hhOwk8L2RlZnM+JiN4YTsJPHBhdGggZmlsbD0idXJsKCNBKSIgZD0iTTI0LjEwNCA4LjEwMmE0Ljk3IDQuOTcgMCAwIDEgMS4wNDIgMS41MzRjLjI5MS41NDkuNDM4IDEuMTUyLjQzOCAxLjgxdjExLjcyNWMwIDEuMjQxLS40MjEgMi4yNjUtMS4yNjIgMy4wNjgtLjgzOC44NDItMS44OCAxLjI2MS0zLjEyMSAxLjI2MUgzLjgyN2E0LjE4IDQuMTggMCAwIDEtMy4wNjgtMS4yNjFDLS4wODEgMjUuNDM2LS41IDI0LjQxMi0uNSAyMy4xNzFWMTEuNDQ0YzAtMS4zODcuNDkxLTIuNTAyIDEuNDc4LTMuMzQyTDkuNjM4LjU5NkE0LjUgNC41IDAgMCAxIDEyLjU5NC0uNSA0LjA5IDQuMDkgMCAwIDEgMTUuNDQ0LjU5NnptLTkuMzcgNy44MzZIMTAuMzV2OC43MTNoNC4zODR6bTcuNzgyLTQuNDk0YzAtLjQ3My0uMTQ3LS44NTktLjQzOC0xLjE1bC04LjY1OC03LjUwNmMtLjYyMS0uNDczLTEuMjYxLS40NzMtMS45MTggMGwtOC42NTUgNy41MDZjLS4yOTMuMjkzLS40MzguNjc3LS40MzggMS4xNTJ2MTEuNzI1YzAgLjQzOC4xMjguODAzLjM4NCAxLjA5NmExLjUzIDEuNTMgMCAwIDAgMS4wNC4zODRoMy42MTd2LTguNzEzYzAtLjgwMy4yNzQtMS40OC44MjEtMi4wMjcuNTg2LS41ODYgMS4yOC0uODc3IDIuMDgzLS44NzdoNC4zODRhMi42NiAyLjY2IDAgMCAxIDIuMDI3Ljg3N2MuNTQ5LjU0Ny44MjIgMS4yMjQuODIyIDIuMDI3djguNzEzaDMuNjE3Yy40MzggMCAuNzg0LS4xMjggMS4wNC0uMzg0LjE0NC0uMTQzLjI1Ny0uMzE0LjMzMy0uNTAzcy4xMTEtLjM5LjEwNi0uNTkzeiIvPiYjeGE7PC9zdmc+;labelPosition=center;align=left;fontStyle=1;spacingLeft=0;fontSize=16;fontColor=#1D2D3E;html=1;" vertex="1" parent="BptUhg1o3gFt8rA6bAoc-92">
          <mxGeometry y="0.5" width="28" height="30" relative="1" as="geometry">
            <mxPoint x="15" y="-90" as="offset" />
          </mxGeometry>
        </mxCell>
        <mxCell id="BptUhg1o3gFt8rA6bAoc-99" value="NETWORK" style="text;html=1;align=left;verticalAlign=middle;resizable=0;points=[];autosize=1;strokeColor=none;fillColor=none;fontSize=14;fontStyle=1;fontColor=#5B738B;" vertex="1" parent="1">
          <mxGeometry x="838" y="67" width="100" height="30" as="geometry" />
        </mxCell>
        <mxCell id="BptUhg1o3gFt8rA6bAoc-102" value="" style="endArrow=blockThin;html=1;strokeColor=#475E75;bendable=1;rounded=0;endFill=1;endSize=4;strokeWidth=1.5;startSize=4;startArrow=none;startFill=0;edgeStyle=orthogonalEdgeStyle;" edge="1" source="BptUhg1o3gFt8rA6bAoc-108" parent="1">
          <mxGeometry width="50" height="50" relative="1" as="geometry">
            <mxPoint x="618" y="409" as="sourcePoint" />
            <mxPoint x="868" y="367.9999999999998" as="targetPoint" />
            <Array as="points">
              <mxPoint x="838" y="368" />
              <mxPoint x="838" y="368" />
            </Array>
          </mxGeometry>
        </mxCell>
        <mxCell id="BptUhg1o3gFt8rA6bAoc-104" value="" style="endArrow=none;html=1;strokeColor=#5B738B;bendable=1;rounded=0;endFill=0;endSize=4;strokeWidth=3;startSize=4;startArrow=none;startFill=0;jumpStyle=gap;" edge="1" parent="1">
          <mxGeometry width="50" height="50" relative="1" as="geometry">
            <mxPoint x="828" y="69" as="sourcePoint" />
            <mxPoint x="828" y="709" as="targetPoint" />
            <Array as="points" />
          </mxGeometry>
        </mxCell>
        <mxCell id="BptUhg1o3gFt8rA6bAoc-108" value="HTTPS" style="rounded=1;whiteSpace=wrap;html=1;strokeColor=#475E75;strokeWidth=1.5;arcSize=51;fillColor=#FFFFFF;perimeterSpacing=0;absoluteArcSize=1;fontColor=#475E75;fontSize=10;fontStyle=1" vertex="1" parent="1">
          <mxGeometry x="718" y="441" width="51" height="16" as="geometry" />
        </mxCell>
        <mxCell id="BptUhg1o3gFt8rA6bAoc-118" style="edgeStyle=orthogonalEdgeStyle;rounded=0;orthogonalLoop=1;jettySize=auto;html=1;entryX=0;entryY=0.75;entryDx=0;entryDy=0;" edge="1" parent="1" source="BptUhg1o3gFt8rA6bAoc-80" target="BptUhg1o3gFt8rA6bAoc-108">
          <mxGeometry relative="1" as="geometry" />
        </mxCell>
        <mxCell id="BptUhg1o3gFt8rA6bAoc-119" style="edgeStyle=orthogonalEdgeStyle;rounded=0;orthogonalLoop=1;jettySize=auto;html=1;" edge="1" source="BptUhg1o3gFt8rA6bAoc-120" target="BptUhg1o3gFt8rA6bAoc-123" parent="1">
          <mxGeometry relative="1" as="geometry" />
        </mxCell>
        <mxCell id="BptUhg1o3gFt8rA6bAoc-120" value="End User" style="shape=image;editableCssRules=.*;verticalLabelPosition=bottom;labelBackgroundColor=default;verticalAlign=top;aspect=fixed;imageAspect=0;image=data:image/svg+xml,PHN2ZyB4bWxucz0iaHR0cDovL3d3dy53My5vcmcvMjAwMC9zdmciIHZpZXdCb3g9Ii0wLjUgLTAuNSAyOCAyOCIgaGVpZ2h0PSIyOCIgd2lkdGg9IjI4Ij4mI3hhOwkgIDxzdHlsZSB0eXBlPSJ0ZXh0L2NzcyI+LnN0MCB7IHN0b3AtY29sb3I6IHJnYig5MSwgMTE1LCAxMzkpOyB9IC5zdDEgeyBzdG9wLWNvbG9yOiByZ2IoMzQsIDUzLCA3Mik7IH0gPC9zdHlsZT4mI3hhOwk8ZGVmcz4mI3hhOwkJPGxpbmVhckdyYWRpZW50IGdyYWRpZW50VW5pdHM9InVzZXJTcGFjZU9uVXNlIiB5Mj0iMjUuMzA5IiB4Mj0iMjMuNDU0IiB5MT0iMy40NzQiIHgxPSIyLjAzOSIgaWQ9IkEiPiYjeGE7CQkJPHN0b3AgY2xhc3M9InN0MCIvPiYjeGE7CQkJPHN0b3AgY2xhc3M9InN0MSIgb2Zmc2V0PSIxIi8+JiN4YTsJCTwvbGluZWFyR3JhZGllbnQ+JiN4YTsJPC9kZWZzPiYjeGE7CTxwYXRoIGZpbGw9InVybCgjQSkiIGQ9Ik0tLjUgMTMuNDcyYzAtMS45My4zNzEtMy43MyAxLjExMy01LjQuNzQyLTEuNzA3IDEuNzQ0LTMuMTkyIDMuMDA2LTQuNDUzUzYuMzY1IDEuMzU2IDguMDczLjYxMyAxMS41OTgtLjUgMTMuNTI4LS41czMuNzMuMzcxIDUuNCAxLjExM2MxLjcwNy43NDIgMy4xOTIgMS43NDQgNC40NTMgMy4wMDZzMi4yNjQgMi43NDYgMy4wMDYgNC40NTNjLjc0MiAxLjY3IDEuMTEzIDMuNDcgMS4xMTMgNS40cy0uMzcxIDMuNzQ4LTEuMTEzIDUuNDU1LTEuNzQ0IDMuMTkyLTMuMDA2IDQuNDUzYTE0LjI4IDE0LjI4IDAgMCAxLTQuNDUzIDMuMDA2Yy0xLjY3Ljc0Mi0zLjQ3IDEuMTEzLTUuNCAxLjExM3MtMy43NDgtLjM3MS01LjQ1NS0xLjExM2ExNC4yOCAxNC4yOCAwIDAgMS00LjQ1My0zLjAwNiAxNC4yOCAxNC4yOCAwIDAgMS0zLjAwNi00LjQ1M0MtLjEyOSAxNy4yMi0uNSAxNS40MDItLjUgMTMuNDcyem0xNi44MTEgNC4yMzFhNi42NSA2LjY1IDAgMCAxIDMuMjg0LjgzNWMxLjAwMi41MiAxLjgxOCAxLjI0MyAyLjQ0OSAyLjE3MWExMC4xNCAxMC4xNCAwIDAgMCAxLjk0OC0zLjI4NGMuNDgyLTEuMjI1LjcyNC0yLjU0Mi43MjQtMy45NTIgMC0xLjU1OS0uMjk3LTMuMDA2LS44OTEtNC4zNDItLjU5NC0xLjM3My0xLjM5Mi0yLjU2MS0yLjM5NC0zLjU2M3MtMi4xOS0xLjgtMy41NjMtMi4zOTRjLTEuMzM2LS41OTQtMi43ODMtLjg5MS00LjM0Mi0uODkxcy0zLjAyNC4yOTctNC4zOTguODkxYy0xLjMzNi41OTQtMi41MjQgMS4zOTItMy41NjMgMi4zOTRBMTEuMzUgMTEuMzUgMCAwIDAgMy4xNzQgOS4xM2MtLjU5NCAxLjMzNi0uODkxIDIuNzgzLS44OTEgNC4zNDIgMCAxLjQxLjIyMyAyLjcyOC42NjggMy45NTIuNDgyIDEuMjI1IDEuMTUgMi4zMTkgMi4wMDQgMy4yODQuNjMxLS45MjggMS40NDctMS42NTEgMi40NDktMi4xNzFhNi42NSA2LjY1IDAgMCAxIDMuMjg0LS44MzV6bTIuNzgzLTcuMDE0YTUuNjggNS42OCAwIDAgMS0uNDQ1IDIuMjI3IDUuODcgNS44NyAwIDAgMS0xLjIyNSAxLjc4MWMtLjQ4Mi40ODItMS4wNTguODcyLTEuNzI2IDEuMTY5cy0xLjM5Mi40NDUtMi4xNzEuNDQ1YTUuNjggNS42OCAwIDAgMS0yLjIyNy0uNDQ1IDYuNDQgNi40NCAwIDAgMS0xLjc4MS0xLjE2OSA2LjQ0IDYuNDQgMCAwIDEtMS4xNjktMS43ODEgNS42OCA1LjY4IDAgMCAxLS40NDUtMi4yMjdjMC0uNzc5LjE0OC0xLjUwMy40NDUtMi4xNzFBNi40NCA2LjQ0IDAgMCAxIDkuNTIgNi43MzdhNS44NyA1Ljg3IDAgMCAxIDEuNzgxLTEuMjI1IDUuNjggNS42OCAwIDAgMSAyLjIyNy0uNDQ1Yy43NzkgMCAxLjUwMy4xNDggMi4xNzEuNDQ1czEuMjQzLjcwNSAxLjcyNiAxLjIyNWE1Ljg3IDUuODcgMCAwIDEgMS4yMjUgMS43ODFjLjI5Ny42NjguNDQ1IDEuMzkyLjQ0NSAyLjE3MXptLTIuNzgzIDBjMC0uNzc5LS4yNzgtMS40MjktLjgzNS0xLjk0OC0uNTU3LS41NTctMS4yMDYtLjgzNS0xLjk0OC0uODM1YTIuNzMgMi43MyAwIDAgMC0yLjAwNC44MzVjLS41NTcuNTItLjgzNSAxLjE2OS0uODM1IDEuOTQ4YTIuNzMgMi43MyAwIDAgMCAuODM1IDIuMDA0Yy41NTcuNTIgMS4yMjUuNzc5IDIuMDA0Ljc3OS43NDIgMCAxLjM5Mi0uMjYgMS45NDgtLjc3OWEyLjczIDIuNzMgMCAwIDAgLjgzNS0yLjAwNHpNNy4wNzEgMjIuNjU3Yy44OTEuNjMxIDEuODc0IDEuMTMyIDIuOTUgMS41MDMgMS4xMTMuMzcxIDIuMjgyLjU1NyAzLjUwNy41NTcgMS4xODggMCAyLjMxOS0uMTg2IDMuMzk2LS41NTcgMS4xMTMtLjM3MSAyLjExNS0uODcyIDMuMDA2LTEuNTAzLS4zNzEtLjY2OC0uODkxLTEuMTg4LTEuNTU5LTEuNTU5LS42MzEtLjQwOC0xLjMxNy0uNjEyLTIuMDYtLjYxMmgtNS42MjJjLS43NDIgMC0xLjQ0Ny4yMDQtMi4xMTUuNjEyLS42MzEuMzcxLTEuMTMyLjg5MS0xLjUwMyAxLjU1OXoiLz4mI3hhOzwvc3ZnPg==;fontSize=12;fontColor=#1D2D3E;" vertex="1" parent="1">
          <mxGeometry x="-59" y="280" width="28" height="28" as="geometry" />
        </mxCell>
        <mxCell id="BptUhg1o3gFt8rA6bAoc-121" style="edgeStyle=orthogonalEdgeStyle;rounded=0;orthogonalLoop=1;jettySize=auto;html=1;" edge="1" source="BptUhg1o3gFt8rA6bAoc-123" parent="1">
          <mxGeometry relative="1" as="geometry">
            <mxPoint x="40" y="378.5000000000002" as="targetPoint" />
          </mxGeometry>
        </mxCell>
        <mxCell id="BptUhg1o3gFt8rA6bAoc-122" style="edgeStyle=orthogonalEdgeStyle;rounded=0;orthogonalLoop=1;jettySize=auto;html=1;targetPerimeterSpacing=0;sourcePerimeterSpacing=55;endArrow=none;endFill=0;strokeColor=#188918;strokeWidth=1.5;" edge="1" source="BptUhg1o3gFt8rA6bAoc-123" parent="1">
          <mxGeometry relative="1" as="geometry">
            <mxPoint x="-40" y="620" as="targetPoint" />
          </mxGeometry>
        </mxCell>
        <mxCell id="BptUhg1o3gFt8rA6bAoc-123" value="Application&lt;br&gt;Clients&lt;br&gt;&lt;font color=&quot;#556b82&quot; style=&quot;font-size: 10px;&quot;&gt;Mobile or Desktop&lt;/font&gt;" style="shape=image;editableCssRules=.*;verticalLabelPosition=bottom;labelBackgroundColor=none;verticalAlign=top;aspect=fixed;imageAspect=0;image=data:image/svg+xml,PHN2ZyB4bWxucz0iaHR0cDovL3d3dy53My5vcmcvMjAwMC9zdmciIHZpZXdCb3g9Ii0wLjUgLTAuNSAyOCAyMy4zNDMiIGhlaWdodD0iMjMuMzQzIiB3aWR0aD0iMjgiPiYjeGE7CSAgPHN0eWxlIHR5cGU9InRleHQvY3NzIj4uc3QwIHsgc3RvcC1jb2xvcjogcmdiKDkxLCAxMTUsIDEzOSk7IH0gLnN0MSB7IHN0b3AtY29sb3I6IHJnYigzNCwgNTMsIDcyKTsgfSA8L3N0eWxlPiYjeGE7CTxkZWZzPiYjeGE7CQk8bGluZWFyR3JhZGllbnQgZ3JhZGllbnRVbml0cz0idXNlclNwYWNlT25Vc2UiIHkyPSIyNC4yMTciIHgyPSIxOS41NCIgeTE9IjIuODEzIiB4MT0iMi4wMzkiIGlkPSJBIj4mI3hhOwkJCTxzdG9wIGNsYXNzPSJzdDAiLz4mI3hhOwkJCTxzdG9wIGNsYXNzPSJzdDEiIG9mZnNldD0iMSIvPiYjeGE7CQk8L2xpbmVhckdyYWRpZW50PiYjeGE7CTwvZGVmcz4mI3hhOwk8cGF0aCBmaWxsPSJ1cmwoI0EpIiBkPSJNMTMuNTI3IDE4LjE4NnYyLjNoMS4xNWMuNzY4IDAgMS4xNS40MDMgMS4xNSAxLjIwNi4wMDQuMTUyLS4wMjIuMzA0LS4wNzkuNDQ1cy0uMTQxLjI3LS4yNDkuMzc3Yy0uMTgyLjIxNy0uNDU2LjMyOC0uODIyLjMyOEg3LjY2NGMtLjE1Mi4wMDQtLjMwMy0uMDIzLS40NDQtLjA4cy0uMjY5LS4xNDItLjM3Ni0uMjUtLjE5My0uMjM1LS4yNS0uMzc2LS4wODQtLjI5Mi0uMDgtLjQ0NGMwLS4zNjYuMTEtLjY1Ny4zMy0uODc3LjEwNy0uMTA4LjIzNS0uMTkzLjM3Ni0uMjVzLjI5Mi0uMDg0LjQ0NC0uMDhoMy41MDd2LTIuM0gzLjAwN2EzLjUzIDMuNTMgMCAwIDEtMi41MjEtLjk4NyAzLjUzIDMuNTMgMCAwIDEtLjk4NS0yLjUxOVYzLjAwOWMwLS45ODcuMzMtMS44MDkuOTg3LTIuNDY3LjMyNy0uMzM2LjcxOS0uNjAyIDEuMTUyLS43ODJzLjg5OS0uMjY4IDEuMzY4LS4yNmgxOC42ODNBMy4yNSAzLjI1IDAgMCAxIDI0LjE1Ni41NDJjLjY5NC42NTggMS4wNDEgMS40OCAxLjA0MSAyLjQ2NXYyLjM1NmMuMDA0LjE1Mi0uMDIyLjMwNC0uMDc5LjQ0NXMtLjE0MS4yNy0uMjQ5LjM3N2MtLjExNi4xMTItLjI1NC4xOTgtLjQwNC4yNTVzLS4zMTEuMDgyLS40NzIuMDc1Yy0uMTUyLjAwNC0uMzA0LS4wMjMtLjQ0NS0uMDhzLS4yNy0uMTQyLS4zNzctLjI1LS4xOTMtLjIzNi0uMjUtLjM3Ny0uMDg0LS4yOTMtLjA4LS40NDVWMy4wMDljMC0uNzY4LS4zODItMS4xNTItMS4xNS0xLjE1MkgzLjAwN2MtLjc2OCAwLTEuMTUuMzg0LTEuMTUgMS4xNXYxMS42NzJjMCAuNzY2LjM4MiAxLjE1IDEuMTUgMS4xNWgxMS42N2MuNzY4IDAgMS4xNS40MDMgMS4xNSAxLjIwNi4wMDQuMTUyLS4wMjMuMzAzLS4wNzkuNDQ0cy0uMTQxLjI2OS0uMjQ5LjM3NmMtLjE4Mi4yMTktLjQ1Ni4zMy0uODIyLjMzem0xMi44MjItOS4zN2MuNzY2IDAgMS4xNS40MDMgMS4xNSAxLjIwNnYxMS42N2MuMDA0LjE1Mi0uMDIzLjMwNC0uMDguNDQ1cy0uMTQyLjI3LS4yNS4zNzdjLS4xODIuMjE3LS40NTYuMzI4LS44MjIuMzI4aC03LjAxM2MtLjE1Mi4wMDQtLjMwMy0uMDIzLS40NDQtLjA4cy0uMjY5LS4xNDItLjM3Ni0uMjUtLjE5My0uMjM1LS4yNS0uMzc2LS4wODQtLjI5Mi0uMDgtLjQ0NHYtMTEuNjdjMC0uMzY2LjExLS42NTcuMzMtLjg3Ny4xMDctLjEwOC4yMzYtLjE5My4zNzctLjI1cy4yOTMtLjA4NC40NDUtLjA4em0tNS44MDkgMi4zNTZ2OC4xNjNoNC42NTd2LTguMTY0eiIvPiYjeGE7PC9zdmc+;html=1;fontColor=#1D2D3E;" vertex="1" parent="1">
          <mxGeometry x="-59" y="367" width="28" height="23" as="geometry" />
        </mxCell>
        <mxCell id="BptUhg1o3gFt8rA6bAoc-153" style="edgeStyle=orthogonalEdgeStyle;rounded=0;orthogonalLoop=1;jettySize=auto;html=1;entryX=0;entryY=0.5;entryDx=0;entryDy=0;" edge="1" parent="1" source="BptUhg1o3gFt8rA6bAoc-125" target="BptUhg1o3gFt8rA6bAoc-142">
          <mxGeometry relative="1" as="geometry" />
        </mxCell>
        <mxCell id="BptUhg1o3gFt8rA6bAoc-125" value="SAML2/OIDC" style="rounded=1;whiteSpace=wrap;html=1;strokeColor=#188918;strokeWidth=1.5;arcSize=16;fillColor=#F5FAE5;perimeterSpacing=0;absoluteArcSize=1;fontColor=#188918;fontSize=10;fontStyle=1" vertex="1" parent="1">
          <mxGeometry x="-70" y="620" width="70" height="16" as="geometry" />
        </mxCell>
      </root>
    </mxGraphModel>
  </diagram>
</mxfile>
